# xmcd
#
# Track frame offsets:
# 150
# 22397
# 37250
# 53630
# 81142
# 97637
# 125330
# 148310
# 172500
# 184865
# 202490
#
# Disc length: 3008 seconds
#
#
# Revision: 0
# Processed by: cddbd v1.4PL0 Copyright (c) Steve Scherf et al.
# Submitted via: FreeRIP 2.20 
#
DISCID=9a0bbe0b
DTITLE=Mission of Blues - Mission of Blues
DYEAR=1999
DGENRE=Blues
TTITLE0=Made in the Shade
TTITLE1=So Fine
TTITLE2=Bad Whiskey
TTITLE3=Gots to Go
TTITLE4=Blood Red Nails
TTITLE5=It don't Matter
TTITLE6=Times are Changing
TTITLE7=Cyrus Clay
TTITLE8=Oh Elaine
TTITLE9=Knocked Out
TTITLE10=Time to Say Goodnight
EXTD=
EXTT0=
EXTT1=
EXTT2=
EXTT3=
EXTT4=
EXTT5=
EXTT6=
EXTT7=
EXTT8=
EXTT9=
EXTT10=
PLAYORDER=
